<svg role="img" aria-label="codeembed" width="540" height="130" viewBox="0 0 540 130" xmlns="http://www.w3.org/2000/svg"><title>codeembed</title><g><path d="M61.488,91.64c-3.168,0 -5.94,-0.6 -8.316,-1.8c-2.376,-1.2 -4.212,-2.94 -5.508,-5.22c-1.296,-2.28 -1.944,-4.98 -1.944,-8.1l-0,-10.8c-0,-3.168 0.648,-5.88 1.944,-8.136c1.296,-2.256 3.132,-3.984 5.508,-5.184c2.376,-1.2 5.148,-1.8 8.316,-1.8c4.56,-0 8.232,1.224 11.016,3.672c2.784,2.448 4.248,5.784 4.392,10.008l-6.48,-0c-0.144,-2.544 -0.996,-4.5 -2.556,-5.868c-1.56,-1.368 -3.684,-2.052 -6.372,-2.052c-2.832,-0 -5.088,0.804 -6.768,2.412c-1.68,1.608 -2.52,3.9 -2.52,6.876l-0,10.872c-0,2.976 0.84,5.28 2.52,6.912c1.68,1.632 3.936,2.448 6.768,2.448c2.688,-0 4.812,-0.696 6.372,-2.088c1.56,-1.392 2.412,-3.336 2.556,-5.832l6.48,-0c-0.144,4.224 -1.608,7.56 -4.392,10.008c-2.784,2.448 -6.456,3.672 -11.016,3.672Z" fill="#475569"/><path d="M102.96,91.496c-3.168,0 -5.904,-0.6 -8.208,-1.8c-2.304,-1.2 -4.092,-2.94 -5.364,-5.22c-1.272,-2.28 -1.908,-4.98 -1.908,-8.1l-0,-10.512c-0,-3.168 0.636,-5.88 1.908,-8.136c1.272,-2.256 3.06,-3.984 5.364,-5.184c2.304,-1.2 5.04,-1.8 8.208,-1.8c3.168,-0 5.904,0.6 8.208,1.8c2.304,1.2 4.092,2.928 5.364,5.184c1.272,2.256 1.908,4.944 1.908,8.064l-0,10.584c-0,3.12 -0.636,5.82 -1.908,8.1c-1.272,2.28 -3.06,4.02 -5.364,5.22c-2.304,1.2 -5.04,1.8 -8.208,1.8Zm-0,-5.76c2.832,0 5.04,-0.792 6.624,-2.376c1.584,-1.584 2.376,-3.912 2.376,-6.984l-0,-10.512c-0,-3.072 -0.792,-5.4 -2.376,-6.984c-1.584,-1.584 -3.792,-2.376 -6.624,-2.376c-2.784,0 -4.98,0.792 -6.588,2.376c-1.608,1.584 -2.412,3.912 -2.412,6.984l-0,10.512c-0,3.072 0.804,5.4 2.412,6.984c1.608,1.584 3.804,2.376 6.588,2.376Z" fill="#475569"/><path d="M142.416,91.64c-3.936,0 -7.116,-1.32 -9.54,-3.96c-2.424,-2.64 -3.636,-6.216 -3.636,-10.728l-0,-11.592c-0,-4.56 1.2,-8.16 3.6,-10.8c2.4,-2.64 5.592,-3.96 9.576,-3.96c3.264,-0 5.88,0.888 7.848,2.664c1.968,1.776 2.952,4.152 2.952,7.128l-1.296,-1.512l1.44,-0l-0.144,-9l-0,-11.52l6.48,-0l-0,52.56l-6.48,-0l-0,-7.56l-1.296,-0l1.296,-1.512c-0,3.024 -0.984,5.412 -2.952,7.164c-1.968,1.752 -4.584,2.628 -7.848,2.628Zm2.16,-5.616c2.688,-0 4.8,-0.84 6.336,-2.52c1.536,-1.68 2.304,-4.008 2.304,-6.984l-0,-10.8c-0,-2.976 -0.768,-5.304 -2.304,-6.984c-1.536,-1.68 -3.648,-2.52 -6.336,-2.52c-2.736,-0 -4.896,0.816 -6.48,2.448c-1.584,1.632 -2.376,3.984 -2.376,7.056l-0,10.8c-0,3.072 0.792,5.424 2.376,7.056c1.584,1.632 3.744,2.448 6.48,2.448Z" fill="#475569"/><path d="M186.48,91.64c-3.12,0 -5.844,-0.624 -8.172,-1.872c-2.328,-1.248 -4.128,-3.012 -5.4,-5.292c-1.272,-2.28 -1.908,-4.932 -1.908,-7.956l-0,-10.8c-0,-3.072 0.636,-5.736 1.908,-7.992c1.272,-2.256 3.072,-4.008 5.4,-5.256c2.328,-1.248 5.052,-1.872 8.172,-1.872c3.12,-0 5.844,0.624 8.172,1.872c2.328,1.248 4.128,3 5.4,5.256c1.272,2.256 1.908,4.92 1.908,7.992l-0,6.984l-24.624,0l-0,3.816c-0,3.12 0.792,5.508 2.376,7.164c1.584,1.656 3.84,2.484 6.768,2.484c2.496,0 4.512,-0.444 6.048,-1.332c1.536,-0.888 2.472,-2.22 2.808,-3.996l6.48,0c-0.432,3.312 -2.052,5.94 -4.86,7.884c-2.808,1.944 -6.3,2.916 -10.476,2.916Zm9.144,-23.256l-0,-2.664c-0,-3.12 -0.78,-5.52 -2.34,-7.2c-1.56,-1.68 -3.828,-2.52 -6.804,-2.52c-2.928,0 -5.184,0.84 -6.768,2.52c-1.584,1.68 -2.376,4.08 -2.376,7.2l-0,2.088l18.792,0l-0.504,0.576Z" fill="#475569"/><path d="M240.48,98.84c-2.832,0 -5.268,-0.468 -7.308,-1.404c-2.04,-0.936 -3.588,-2.304 -4.644,-4.104c-1.056,-1.8 -1.512,-3.948 -1.368,-6.444l0.72,-11.808c0.144,-2.544 -0.24,-4.38 -1.152,-5.508c-0.912,-1.128 -2.928,-1.692 -6.048,-1.692l-7.92,-0l-0,-5.76l7.92,-0c3.12,-0 5.136,-0.564 6.048,-1.692c0.912,-1.128 1.296,-2.964 1.152,-5.508l-0.72,-11.808c-0.144,-2.544 0.312,-4.704 1.368,-6.48c1.056,-1.776 2.604,-3.132 4.644,-4.068c2.04,-0.936 4.476,-1.404 7.308,-1.404l3.24,-0l-0,5.76l-3.24,-0c-2.256,-0 -3.984,0.516 -5.184,1.548c-1.2,1.032 -1.752,2.58 -1.656,4.644l0.72,11.808c0.192,3.12 -0.552,5.604 -2.232,7.452c-1.68,1.848 -4.056,2.772 -7.128,2.772l-0,-0.36c3.024,-0 5.388,0.936 7.092,2.808c1.704,1.872 2.46,4.368 2.268,7.488l-0.72,11.808c-0.096,2.064 0.456,3.612 1.656,4.644c1.2,1.032 2.928,1.548 5.184,1.548l3.24,-0l-0,5.76l-3.24,-0Z" fill="#7c3aed"/><path d="M270,91.64c-3.12,0 -5.844,-0.624 -8.172,-1.872c-2.328,-1.248 -4.128,-3.012 -5.4,-5.292c-1.272,-2.28 -1.908,-4.932 -1.908,-7.956l-0,-10.8c-0,-3.072 0.636,-5.736 1.908,-7.992c1.272,-2.256 3.072,-4.008 5.4,-5.256c2.328,-1.248 5.052,-1.872 8.172,-1.872c3.12,-0 5.844,0.624 8.172,1.872c2.328,1.248 4.128,3 5.4,5.256c1.272,2.256 1.908,4.92 1.908,7.992l-0,6.984l-24.624,0l0,3.816c0,3.12 0.792,5.508 2.376,7.164c1.584,1.656 3.84,2.484 6.768,2.484c2.496,0 4.512,-0.444 6.048,-1.332c1.536,-0.888 2.472,-2.22 2.808,-3.996l6.48,0c-0.432,3.312 -2.052,5.94 -4.86,7.884c-2.808,1.944 -6.3,2.916 -10.476,2.916Zm9.144,-23.256l-0,-2.664c-0,-3.12 -0.78,-5.52 -2.34,-7.2c-1.56,-1.68 -3.828,-2.52 -6.804,-2.52c-2.928,0 -5.184,0.84 -6.768,2.52c-1.584,1.68 -2.376,4.08 -2.376,7.2l-0,2.088l18.792,0l-0.504,0.576Z" fill="#475569"/><path d="M294.912,90.92l-0,-39.6l5.688,0l-0,4.752l1.296,0l-1.008,1.728c-0,-2.208 0.588,-3.96 1.764,-5.256c1.176,-1.296 2.772,-1.944 4.788,-1.944c2.208,-0 3.912,0.816 5.112,2.448c1.2,1.632 1.8,3.936 1.8,6.912l-1.944,-3.888l3.024,0l-1.368,1.728c-0,-2.208 0.612,-3.96 1.836,-5.256c1.224,-1.296 2.844,-1.944 4.86,-1.944c2.496,-0 4.428,0.936 5.796,2.808c1.368,1.872 2.052,4.344 2.052,7.416l-0,30.096l-5.976,0l-0,-30.168c-0,-1.632 -0.348,-2.904 -1.044,-3.816c-0.696,-0.912 -1.716,-1.368 -3.06,-1.368c-1.296,0 -2.316,0.444 -3.06,1.332c-0.744,0.888 -1.116,2.148 -1.116,3.78l-0,30.24l-5.184,0l-0,-30.168c-0,-1.68 -0.372,-2.964 -1.116,-3.852c-0.744,-0.888 -1.788,-1.332 -3.132,-1.332c-1.344,0 -2.352,0.444 -3.024,1.332c-0.672,0.888 -1.008,2.148 -1.008,3.78l-0,30.24l-5.976,-0Z" fill="#475569"/><path d="M355.824,91.64c-3.264,0 -5.88,-0.876 -7.848,-2.628c-1.968,-1.752 -2.952,-4.14 -2.952,-7.164l1.296,1.512l-1.296,0l-0,7.56l-6.48,0l0,-52.56l6.48,0l-0,11.52l-0.144,9l1.44,0l-1.296,1.512c-0,-2.976 0.996,-5.352 2.988,-7.128c1.992,-1.776 4.596,-2.664 7.812,-2.664c3.984,0 7.176,1.32 9.576,3.96c2.4,2.64 3.6,6.24 3.6,10.8l-0,11.592c-0,4.512 -1.2,8.088 -3.6,10.728c-2.4,2.64 -5.592,3.96 -9.576,3.96Zm-2.16,-5.616c2.736,0 4.896,-0.816 6.48,-2.448c1.584,-1.632 2.376,-3.984 2.376,-7.056l0,-10.8c0,-3.072 -0.792,-5.424 -2.376,-7.056c-1.584,-1.632 -3.744,-2.448 -6.48,-2.448c-2.64,0 -4.74,0.84 -6.3,2.52c-1.56,1.68 -2.34,4.008 -2.34,6.984l-0,10.8c-0,2.976 0.78,5.304 2.34,6.984c1.56,1.68 3.66,2.52 6.3,2.52Z" fill="#475569"/><path d="M395.28,91.64c-3.12,0 -5.844,-0.624 -8.172,-1.872c-2.328,-1.248 -4.128,-3.012 -5.4,-5.292c-1.272,-2.28 -1.908,-4.932 -1.908,-7.956l-0,-10.8c-0,-3.072 0.636,-5.736 1.908,-7.992c1.272,-2.256 3.072,-4.008 5.4,-5.256c2.328,-1.248 5.052,-1.872 8.172,-1.872c3.12,-0 5.844,0.624 8.172,1.872c2.328,1.248 4.128,3 5.4,5.256c1.272,2.256 1.908,4.92 1.908,7.992l-0,6.984l-24.624,0l-0,3.816c-0,3.12 0.792,5.508 2.376,7.164c1.584,1.656 3.84,2.484 6.768,2.484c2.496,0 4.512,-0.444 6.048,-1.332c1.536,-0.888 2.472,-2.22 2.808,-3.996l6.48,0c-0.432,3.312 -2.052,5.94 -4.86,7.884c-2.808,1.944 -6.3,2.916 -10.476,2.916Zm9.144,-23.256l-0,-2.664c-0,-3.12 -0.78,-5.52 -2.34,-7.2c-1.56,-1.68 -3.828,-2.52 -6.804,-2.52c-2.928,0 -5.184,0.84 -6.768,2.52c-1.584,1.68 -2.376,4.08 -2.376,7.2l-0,2.088l18.792,0l-0.504,0.576Z" fill="#475569"/><path d="M434.736,91.64c-3.936,0 -7.116,-1.32 -9.54,-3.96c-2.424,-2.64 -3.636,-6.216 -3.636,-10.728l0,-11.592c0,-4.56 1.2,-8.16 3.6,-10.8c2.4,-2.64 5.592,-3.96 9.576,-3.96c3.264,-0 5.88,0.888 7.848,2.664c1.968,1.776 2.952,4.152 2.952,7.128l-1.296,-1.512l1.44,-0l-0.144,-9l-0,-11.52l6.48,-0l-0,52.56l-6.48,-0l-0,-7.56l-1.296,-0l1.296,-1.512c-0,3.024 -0.984,5.412 -2.952,7.164c-1.968,1.752 -4.584,2.628 -7.848,2.628Zm2.16,-5.616c2.688,-0 4.8,-0.84 6.336,-2.52c1.536,-1.68 2.304,-4.008 2.304,-6.984l-0,-10.8c-0,-2.976 -0.768,-5.304 -2.304,-6.984c-1.536,-1.68 -3.648,-2.52 -6.336,-2.52c-2.736,-0 -4.896,0.816 -6.48,2.448c-1.584,1.632 -2.376,3.984 -2.376,7.056l-0,10.8c-0,3.072 0.792,5.424 2.376,7.056c1.584,1.632 3.744,2.448 6.48,2.448Z" fill="#475569"/><path d="M463.32,98.84l-0,-5.76l3.24,0c2.256,0 3.984,-0.516 5.184,-1.548c1.2,-1.032 1.752,-2.58 1.656,-4.644l-0.72,-11.808c-0.192,-3.12 0.564,-5.616 2.268,-7.488c1.704,-1.872 4.068,-2.808 7.092,-2.808l0,0.36c-3.072,0 -5.448,-0.924 -7.128,-2.772c-1.68,-1.848 -2.424,-4.332 -2.232,-7.452l0.72,-11.808c0.096,-2.064 -0.456,-3.612 -1.656,-4.644c-1.2,-1.032 -2.928,-1.548 -5.184,-1.548l-3.24,0l0,-5.76l3.24,0c2.832,0 5.268,0.468 7.308,1.404c2.04,0.936 3.588,2.292 4.644,4.068c1.056,1.776 1.512,3.936 1.368,6.48l-0.72,11.808c-0.144,2.544 0.24,4.38 1.152,5.508c0.912,1.128 2.928,1.692 6.048,1.692l7.92,0l0,5.76l-7.92,0c-3.072,0 -5.076,0.564 -6.012,1.692c-0.936,1.128 -1.332,2.964 -1.188,5.508l0.72,11.808c0.144,2.496 -0.312,4.644 -1.368,6.444c-1.056,1.8 -2.604,3.168 -4.644,4.104c-2.04,0.936 -4.476,1.404 -7.308,1.404l-3.24,0Z" fill="#7c3aed"/></g></svg>
